<svg xmlns="http://www.w3.org/2000/svg" viewBox="0 0 512 512">
  <rect width="512" height="512" rx="96" fill="#09090d"/>
  <circle cx="256" cy="256" r="184" fill="#c7253d"/>
  <circle cx="256" cy="256" r="136" fill="#0a0a0d"/>
  <path d="M258 112c66 0 121 46 134 108h-62c-12-29-40-49-72-49-43 0-78 35-78 78s35 78 78 78c32 0 60-20 72-49h62c-13 62-68 108-134 108-76 0-137-61-137-137s61-137 137-137Z" fill="#f5c84b"/>
  <path d="M96 409h320v38H96z" fill="#ffffff" opacity=".88"/>
  <path d="M110 72h292v42H110z" fill="#ffffff" opacity=".88"/>
</svg>
